<svg xmlns="http://www.w3.org/2000/svg" xmlns:xlink="http://www.w3.org/1999/xlink" width="294" height="87" viewBox="0 0 294 87">
  <defs>
    <clipPath id="clip-LogoMarca_-_5">
      <rect width="294" height="87"/>
    </clipPath>
  </defs>
  <g id="LogoMarca_-_5" data-name="LogoMarca - 5" clip-path="url(#clip-LogoMarca_-_5)">
    <g id="Grupo_7" data-name="Grupo 7" transform="translate(-78 -181)">
      <g id="paper-plane" transform="translate(90 193.957)">
        <g id="Grupo_2" data-name="Grupo 2" transform="translate(0 5.622)">
          <path id="Caminho_1" data-name="Caminho 1" d="M75.289,27.641a1.663,1.663,0,0,0-1.67-.1L22.392,53.35a1.751,1.751,0,0,0-.934,1.771A1.716,1.716,0,0,0,22.794,56.6c6.08,1.311,15.526,3.385,18.72,4.183V77.7a1.733,1.733,0,0,0,1.122,1.632,1.626,1.626,0,0,0,.573.1,1.708,1.708,0,0,0,1.3-.625L55.1,65.779c2.852,1.155,11.253,4.462,18.446,7.291a1.847,1.847,0,0,0,.608.113,1.669,1.669,0,0,0,.95-.3,1.742,1.742,0,0,0,.737-1.415l.411-42.269A1.726,1.726,0,0,0,75.289,27.641ZM43.475,57.768a1.4,1.4,0,0,1,.489.182A5.182,5.182,0,0,0,43.475,57.768Z" transform="translate(-16.37 -22.215)" fill="#4e66ff"/>
          <g id="XMLID_13_">
            <g id="Grupo_1" data-name="Grupo 1">
              <path id="Caminho_2" data-name="Caminho 2" d="M121.1,54.445c-1.19,2.057-2.467,4.253-3.734,6.449-5.729,9.921-8.246,14.356-9.308,16.508L99.079,88.443V75.875c.283-.234.573-.494.89-.781.839-.781,2.055-1.927,3.605-3.428,2.6-2.509,6.208-6.032,10.7-10.476C116.625,58.88,118.963,56.563,121.1,54.445Z" transform="translate(-75.628 -42.889)" fill="#302c58"/>
              <path id="Caminho_3" data-name="Caminho 3" d="M75,73.518l-.025-.026a1.672,1.672,0,0,0-1.946-.322l-3.306,1.666a1.724,1.724,0,0,0-.443,2.742l.025.025a1.673,1.673,0,0,0,1.946.323l3.306-1.666A1.722,1.722,0,0,0,75,73.518Z" transform="translate(-52.505 -57.045)" fill="#222051"/>
              <path id="Caminho_4" data-name="Caminho 4" d="M53.842,5.9a1.663,1.663,0,0,0-1.67-.1L26.625,18.673a1.741,1.741,0,0,0-.447,2.771h0a1.691,1.691,0,0,0,1.966.326L44.08,13.742C34.471,23.272,24,33.574,21.421,35.849c-1.7-.477-5.524-1.38-14.592-3.342l5.817-2.93a1.74,1.74,0,0,0,.446-2.769h0a1.687,1.687,0,0,0-1.964-.325L.945,31.612a1.752,1.752,0,0,0-.934,1.771,1.716,1.716,0,0,0,1.336,1.475c6.08,1.311,15.526,3.385,18.72,4.183V55.927a1.77,1.77,0,0,0,1.061,1.648,1.647,1.647,0,0,0,.634.128,1.707,1.707,0,0,0,1.3-.625L33.658,44.042C36.51,45.2,44.911,48.5,52.1,51.333a1.848,1.848,0,0,0,.608.113,1.677,1.677,0,0,0,.951-.3,1.742,1.742,0,0,0,.737-1.415l.411-42.269A1.728,1.728,0,0,0,53.842,5.9ZM32.425,40.135,23.451,51.176V38.608c.283-.234.573-.494.89-.781.839-.781,2.055-1.927,3.605-3.428,2.6-2.509,6.208-6.032,10.7-10.476C41,21.614,43.335,19.3,45.467,17.178c-1.19,2.057-2.467,4.253-3.734,6.449C36,33.548,33.487,37.983,32.425,40.135ZM51.042,47.2c-5.575-2.187-12.323-4.851-15.329-6.05,2.295-4.305,9.608-16.977,15.646-27.332Z" transform="translate(0 -5.622)" fill="#222051"/>
              <path id="Caminho_5" data-name="Caminho 5" d="M93.562,134.275a1.388,1.388,0,0,0-.488-.182C93.288,134.163,93.442,134.223,93.562,134.275Z" transform="translate(-71.044 -103.685)" fill="#222051"/>
            </g>
          </g>
        </g>
      </g>
      <g id="Grupo_5" data-name="Grupo 5" transform="translate(0 13)">
        <text id="WorkProjects" transform="translate(169 214)" fill="#3f3f3f" font-size="36" font-family="FredokaOne-Regular, Fredoka One"><tspan x="0" y="0">WorkProjects</tspan></text>
        <text id="Rago_s_Inc" data-name="Rago&apos;s Inc" transform="translate(171 236)" fill="#3f3f3f" font-size="12" font-family="FredokaOne-Regular, Fredoka One"><tspan x="0" y="0">Rago&apos;s Inc</tspan></text>
      </g>
    </g>
  </g>
</svg>
