<svg xmlns="http://www.w3.org/2000/svg" xmlns:xlink="http://www.w3.org/1999/xlink" width="47" height="51" viewBox="0 0 47 51">
  <defs>
    <clipPath id="clip-logotipo">
      <rect width="47" height="51"/>
    </clipPath>
  </defs>
  <g id="logotipo" clip-path="url(#clip-logotipo)">
    <g id="Capibalogo" transform="translate(-40.902 -36.71)">
      <path id="Caminho_1" data-name="Caminho 1" d="M78.259,54.106H86.6a20.071,20.071,0,0,0,.012-5.953,8.8,8.8,0,0,0-1.52-4.189,12.154,12.154,0,0,0-3.818-3.133,28.28,28.28,0,0,0-17.534-2.785A24.513,24.513,0,0,0,46.209,49.708a26.846,26.846,0,0,0-3.3,14.2,13.644,13.644,0,0,1,2.959-.1,14.9,14.9,0,0,1,3.191.6,16.382,16.382,0,0,1,1.822.7,11.163,11.163,0,0,0,1.741.882c0-1.752-.313-3.458-.162-5.233a17.953,17.953,0,0,1,1.23-5.28C56.664,48.165,65.2,44.4,72.724,46.517c1.764.5,3.829,1.23,4.909,2.82A6.215,6.215,0,0,1,78.259,54.106Z" transform="translate(0 0)" fill="#fff"/>
      <path id="Caminho_2" data-name="Caminho 2" d="M380.417,347.4l-.917.859a11.505,11.505,0,0,0,3.354,1.334s-1.114-1.485-1.2-1.694C381.658,347.9,380.753,347.539,380.417,347.4Z" transform="translate(-297.539 -273.753)" fill="#fff"/>
      <path id="Caminho_3" data-name="Caminho 3" d="M361.2,363.1s-.928.685-1,.731c0,0,4.99,2.878,7.949,2.785,0,0-.719-1.056-1.056-1.555C367.081,365.061,365.7,365.316,361.2,363.1Z" transform="translate(-280.478 -287.631)" fill="#fff"/>
      <path id="Caminho_4" data-name="Caminho 4" d="M332.345,377.445a12.169,12.169,0,0,1-1.845.882s1.845.023,6.069,2.321c3.748,1.625,3.725,1.334,3.725,1.334a17.786,17.786,0,0,0,1.358-1.311s-1.625.22-5.57-1.6S332.345,377.445,332.345,377.445Z" transform="translate(-254.225 -300.305)" fill="#fff"/>
      <path id="Caminho_5" data-name="Caminho 5" d="M136.1,398.424l-1.265.963s-6.2-3.7-10.281-2.971-4.9,1.323-9.469,3.191-7.751.661-11.151-1.021a25.282,25.282,0,0,1-2.739-2.495s5.86,3.458,10.13,2.971,8.181-3.238,11.7-3.922,5.466.093,8.216,1.207S135.084,398.273,136.1,398.424Z" transform="translate(-51.533 -315.726)" fill="#fff"/>
      <path id="Caminho_6" data-name="Caminho 6" d="M174.8,423.054s3.1,1.137,3.272,1.079,1.114-.151,7.183-2.8S197.1,422,197.1,422l1.334-.6s-5.268-2.866-8.784-2.518-7.16,2.634-9.074,3.2C178.653,422.671,176.158,423.483,174.8,423.054Z" transform="translate(-116.592 -336.909)" fill="#fff"/>
      <path id="Caminho_7" data-name="Caminho 7" d="M94.017,374.922l2.042.348a13.532,13.532,0,0,1-10.1,2.135c-3.725-1.126-6.556-2.913-8.749-3.423L76.1,372.3s1.717.244,6.313,2.46A13.418,13.418,0,0,0,94.017,374.922Z" transform="translate(-29.345 -295.764)" fill="#fff"/>
      <path id="Caminho_8" data-name="Caminho 8" d="M77.915,349.861l1.8.963a8.883,8.883,0,0,1-5.175.36c-3.18-.6-8.471-3.609-11.511-3.853L62.4,345.8a20.971,20.971,0,0,1,6.011,1.949C71.753,349.386,74.967,350.581,77.915,349.861Z" transform="translate(-17.235 -272.339)" fill="#fff"/>
      <path id="Caminho_9" data-name="Caminho 9" d="M66.38,326.136l1.717,1.613s-1.741.395-7.241-2.251-6.881-1.8-6.881-1.8l-.476-1.416s1.775-.476,6.046,1.381S65.267,326.287,66.38,326.136Z" transform="translate(-9.368 -251.503)" fill="#fff"/>
      <path id="Caminho_10" data-name="Caminho 10" d="M59.507,302.865,58.37,301s-.255.139-3.783-1.543-5.21-1.717-7.287-1.613l.29,1.439a17.951,17.951,0,0,1,8.076,1.926A31.329,31.329,0,0,0,59.507,302.865Z" transform="translate(-3.887 -229.914)" fill="#fff"/>
      <path id="Caminho_11" data-name="Caminho 11" d="M54.153,277.923l-.557-1.578s-1.625-.673-2.657-1.184A13.685,13.685,0,0,0,43.5,273.78l.162,1.427a10.946,10.946,0,0,1,6.672.986Z" transform="translate(-0.528 -208.581)" fill="#fff"/>
    </g>
  </g>
</svg>
