<svg xmlns="http://www.w3.org/2000/svg" xmlns:xlink="http://www.w3.org/1999/xlink" width="205" height="69" viewBox="0 0 205 69">
  <defs>
    <clipPath id="clip-logoCapiba">
      <rect width="205" height="69"/>
    </clipPath>
  </defs>
  <g id="logoCapiba" clip-path="url(#clip-logoCapiba)">
    <g id="Grupo_2" data-name="Grupo 2" transform="translate(-218 -1201)">
      <path id="Path_1" data-name="Path 1" d="M-691.678,703.853c0,6.607,5.376,10.3,11.271,10.3a10.754,10.754,0,0,0,9.976-5.83h.129s-.064.583-.064,1.425c0,1.944,1.166,3.628,4.211,3.628h7.384v-6.931h-2.591a1.3,1.3,0,0,1-1.051-.374,1.3,1.3,0,0,1-.374-1.051V692.711c0-7.385-3.238-13.15-14.251-13.15-3.433,0-12.113.648-12.113,6.8v3.5h7.643v-1.749c0-1.814,2.915-2.2,4.405-2.2,4.21,0,6.089,1.749,6.089,6.477v.259h-1.037c-5.376,0-19.627.842-19.627,11.206m8.291-.388c0-4.6,6.8-5.182,11.077-5.182h1.425v.778c0,4.016-3.109,8.68-7.514,8.68-3.368,0-4.988-2.075-4.988-4.278Zm29.277,22.866h8.162V712.663c0-1.684-.129-2.851-.129-2.851h.129a11.527,11.527,0,0,0,9.457,4.34c8.68,0,15.158-6.8,15.158-17.3,0-10.235-5.765-17.3-14.7-17.3-7.709,0-10.494,5.247-10.494,5.247h-.13v-1.3c0-1.813-1.1-3.173-4.146-3.173h-7.32v7h2.591a1.268,1.268,0,0,1,1.065.36,1.268,1.268,0,0,1,.36,1.065Zm7.967-29.279c0-7.32,4.016-10.429,8.291-10.429,4.858,0,8.227,4.081,8.227,10.364,0,6.542-3.822,10.235-8.356,10.235-5.44,0-8.161-5.054-8.161-10.171Zm30.961-22.089h7.126v-7.579h-7.126Zm-.389,34.008c0,3.109,1.3,4.4,4.34,4.4h7.838v-6.931h-2.591a1.3,1.3,0,0,1-1.051-.374,1.3,1.3,0,0,1-.374-1.051V684.744c0-3.044-1.3-4.4-4.341-4.4h-7.838v7H-617a1.268,1.268,0,0,1,1.065.36,1.268,1.268,0,0,1,.36,1.065Zm16.9,4.4h7.773v-1.684a17.2,17.2,0,0,0-.13-2.2h.13a11.787,11.787,0,0,0,9.846,4.664c8.745,0,15.158-6.8,15.158-17.3,0-10.235-5.7-17.3-14.64-17.3-7,0-9.911,4.6-9.911,4.6h-.129s.129-1.166.129-2.785V671.78c0-3.044-1.36-4.4-4.4-4.4h-7.839v7h2.591a1.268,1.268,0,0,1,1.065.36,1.268,1.268,0,0,1,.36,1.065Zm7.968-16.324c0-7.32,4.016-10.429,8.291-10.429,4.858,0,8.227,4.081,8.227,10.364,0,6.542-3.822,10.235-8.291,10.235-5.5,0-8.224-5.049-8.224-10.166Zm26.815,6.8c0,6.607,5.376,10.3,11.271,10.3a10.754,10.754,0,0,0,9.976-5.83h.13a14.2,14.2,0,0,0-.065,1.425c0,1.944,1.166,3.628,4.211,3.628h7.385V706.44h-2.591a1.3,1.3,0,0,1-1.051-.374,1.3,1.3,0,0,1-.374-1.051v-12.3c0-7.385-3.238-13.15-14.251-13.15-3.433,0-12.113.648-12.113,6.8v3.5h7.644v-1.749c0-1.814,2.915-2.2,4.405-2.2,4.21,0,6.089,1.749,6.089,6.477v.259h-1.036c-5.373,0-19.624.841-19.624,11.205Zm8.291-.388c0-4.6,6.8-5.182,11.077-5.182h1.425v.778c0,4.016-3.109,8.68-7.514,8.68-3.362,0-4.981-2.069-4.981-4.272Z" transform="translate(953.678 534.592)" fill="#410b45"/>
      <path id="Path_2" data-name="Path 2" d="M-703.738,738.041l-1.214-1.652c-.382-.13-.755-.272-1.12-.421-.214.212-.5.483-.859.791a21.51,21.51,0,0,0,3.193,1.283" transform="translate(961.536 499.263)" fill="#410b45"/>
      <path id="Path_3" data-name="Path 3" d="M-703.819,742.888l-1.061-1.445a19.031,19.031,0,0,1-5.513-1.911c-.3.224-.631.455-.985.687.606.259,1.194.537,1.778.812a15.641,15.641,0,0,0,5.782,1.857" transform="translate(963.826 497.427)" fill="#410b45"/>
      <path id="Path_4" data-name="Path 4" d="M-708.744,747q.694-.578,1.339-1.213a17.593,17.593,0,0,1-6.393-2.033c-.784-.37-1.552-.733-2.338-1.039-.531.291-1.1.573-1.712.834a21.156,21.156,0,0,1,4.915,1.828,20.592,20.592,0,0,0,4.19,1.622" transform="translate(967.159 495.788)" fill="#410b45"/>
      <path id="Path_5" data-name="Path 5" d="M-753.168,756.054a23.524,23.524,0,0,0,3.46,1.124,21.4,21.4,0,0,0,4.023-1.587,16.288,16.288,0,0,1,7.277-2.072,14.737,14.737,0,0,1,6.4,1.652q.6-.3,1.159-.616c-.385-.174-.764-.354-1.141-.532a14.538,14.538,0,0,0-6.415-1.877,14.514,14.514,0,0,0-6.411,1.884,16.3,16.3,0,0,1-7.284,2.07q-.551,0-1.072-.048" transform="translate(985.353 490.929)" fill="#410b45"/>
      <path id="Path_6" data-name="Path 6" d="M-769.432,747.688a22.154,22.154,0,0,0,2.649,2.443,14.286,14.286,0,0,0,6.308,1.826,14.5,14.5,0,0,0,6.412-1.884A16.289,16.289,0,0,1-746.786,748a16.3,16.3,0,0,1,7.28,2.065c.563.266,1.117.528,1.676.768.442-.286.852-.571,1.231-.848a26.2,26.2,0,0,1-3.771-1.544,14.526,14.526,0,0,0-6.415-1.877c-.325,0-.641.017-.948.047q-.77.175-1.592.289a22.2,22.2,0,0,0-3.871,1.549,16.294,16.294,0,0,1-7.278,2.072,16.3,16.3,0,0,1-7.281-2.065c-.563-.266-1.118-.529-1.677-.768" transform="translate(993.731 493.804)" fill="#410b45"/>
      <path id="Path_7" data-name="Path 7" d="M-775.013,741.454q.512.844,1.091,1.636a24.068,24.068,0,0,1,4.156,1.651,14.512,14.512,0,0,0,6.416,1.876,14.5,14.5,0,0,0,6.412-1.884c.262-.124.525-.249.79-.372a14.126,14.126,0,0,1-1.943-.336,13.341,13.341,0,0,1-5.258,1.156,16.3,16.3,0,0,1-7.281-2.066,19.794,19.794,0,0,0-4.383-1.664" transform="translate(996.606 496.437)" fill="#410b45"/>
      <path id="Path_8" data-name="Path 8" d="M-778.021,735.655q.31.71.664,1.393a18.232,18.232,0,0,1,6.042,2,14.514,14.514,0,0,0,6.416,1.877,10.319,10.319,0,0,0,3.25-.545,14.463,14.463,0,0,1-1.794-.891,11.944,11.944,0,0,1-1.456.09,16.3,16.3,0,0,1-7.281-2.065,15.517,15.517,0,0,0-5.841-1.86" transform="translate(998.156 499.424)" fill="#410b45"/>
      <path id="Path_9" data-name="Path 9" d="M-780.043,730.178q.212.692.463,1.364a16.366,16.366,0,0,1,7.223,2.065,14.948,14.948,0,0,0,6.151,1.874,15.4,15.4,0,0,1-1.65-1.524,19.806,19.806,0,0,1-5.366-1.911,14.509,14.509,0,0,0-6.415-1.877c-.137,0-.273,0-.407.009" transform="translate(999.197 502.25)" fill="#410b45"/>
      <path id="Path_10" data-name="Path 10" d="M-781.4,724.648q.137.709.31,1.4c.246-.016.5-.024.754-.025a16.3,16.3,0,0,1,7.281,2.066,27.245,27.245,0,0,0,3.143,1.329,16.4,16.4,0,0,1-1.041-1.672,32.2,32.2,0,0,1-2.967-1.281,14.5,14.5,0,0,0-6.415-1.877,9.613,9.613,0,0,0-1.066.059" transform="translate(999.897 505.124)" fill="#410b45"/>
      <path id="Path_11" data-name="Path 11" d="M-782.179,719.117q.065.7.165,1.4a11.8,11.8,0,0,1,1.276-.069,16.29,16.29,0,0,1,7.281,2.065c.427.2.849.4,1.271.591q-.287-.716-.511-1.468c-.552-.24-1.091-.495-1.625-.747a14.512,14.512,0,0,0-6.415-1.877,9.652,9.652,0,0,0-1.443.109" transform="translate(1000.298 507.999)" fill="#410b45"/>
      <path id="Path_12" data-name="Path 12" d="M-782.424,688.889q0,.663.031,1.317a11.859,11.859,0,0,1,1.529-.1,16.3,16.3,0,0,1,7.281,2.066l.352.166a18.045,18.045,0,0,1-.331-3.448c0-9.644,6.516-15.573,14.791-15.573,4.039,0,9.578,1.564,9.578,4.953v2.606h7.754v-5.147c0-7.885-11.6-10.36-17.528-10.36-13.422,0-23.457,10.164-23.457,23.522" transform="translate(1000.424 535.631)" fill="#410b45"/>
      <text id="_PraF" data-name="#PraF" transform="translate(331.916 1268.417)" fill="#410b45" font-size="16" font-family="SegoeUI-Semibold, Segoe UI" font-weight="600"><tspan x="0" y="0">#PraF</tspan></text>
      <text id="ren" transform="translate(373.096 1268.417)" fill="#410b45" font-size="16" font-family="SegoeUI-Semibold, Segoe UI" font-weight="600"><tspan x="0" y="0">ren</tspan></text>
      <text id="te" transform="translate(397.122 1268.417)" fill="#410b45" font-size="16" font-family="SegoeUI-Semibold, Segoe UI" font-weight="600"><tspan x="0" y="0">te</tspan></text>
    </g>
  </g>
</svg>
